<?xml version="1.0" encoding="UTF-8" standalone="no"?>
<!DOCTYPE svg PUBLIC "-//W3C//DTD SVG 1.1//EN" "http://www.w3.org/Graphics/SVG/1.1/DTD/svg11.dtd">
<svg width="100%" height="100%" viewBox="0 0 24 24" version="1.1" xmlns="http://www.w3.org/2000/svg" xmlns:xlink="http://www.w3.org/1999/xlink" xml:space="preserve" xmlns:affinity="https://www.affinity.studio/" style="fill-rule:evenodd;clip-rule:evenodd;stroke-linejoin:round;stroke-miterlimit:2;">
    <path d="M16.5,8C16.5,9.5 16,11.5 13.6,12.3C14.3,10.6 14.4,8.9 13.9,7.3C13.2,5.2 10.9,3.6 9.3,2.7C8.9,2.4 8.2,2.8 8.3,3.4C8.3,4.5 8,6.1 6.3,7.8C4.1,10 3,12.3 3,14.5C3,17.4 5,21 9,21C5,17 8,13.5 8,13.5C8.8,19.4 13,21 15,21C16.7,21 20,19.8 20,14.6C20,11.5 18.7,9.1 17.6,7.7C17.3,7.2 16.6,7.5 16.5,8" style="fill:white;fill-rule:nonzero;"/>
</svg>
